<svg width="73" height="73" viewBox="0 0 73 73" fill="none" xmlns="http://www.w3.org/2000/svg">
<g filter="url(#filter0_d_0_128)">
<circle cx="36.5" cy="34.5" r="32.5" fill="url(#paint0_linear_0_128)"/>
</g>
<path fill-rule="evenodd" clip-rule="evenodd" d="M32.125 22H41.875C46.3616 22 50 25.6384 50 30.125V39.875C50 44.3616 46.3616 48 41.875 48H32.125C27.6384 48 24 44.3616 24 39.875V30.125C24 25.6384 27.6384 22 32.125 22ZM41.875 45.5625C45.0112 45.5625 47.5625 43.0112 47.5625 39.875V30.125C47.5625 26.9887 45.0112 24.4375 41.875 24.4375H32.125C28.9887 24.4375 26.4375 26.9887 26.4375 30.125V39.875C26.4375 43.0112 28.9887 45.5625 32.125 45.5625H41.875ZM30.3673 35C30.3673 31.3371 33.3371 28.3673 37 28.3673C40.6629 28.3673 43.6327 31.3371 43.6327 35C43.6327 38.6629 40.6629 41.6327 37 41.6327C33.3371 41.6327 30.3673 38.6629 30.3673 35ZM32.8546 35C32.8546 37.2849 34.7151 39.1454 37 39.1454C39.2849 39.1454 41.1454 37.2849 41.1454 35C41.1454 32.7134 39.2849 30.8546 37 30.8546C34.7151 30.8546 32.8546 32.7134 32.8546 35ZM43.898 28.898C44.3375 28.898 44.6939 28.5416 44.6939 28.102C44.6939 27.6625 44.3375 27.3061 43.898 27.3061C43.4584 27.3061 43.102 27.6625 43.102 28.102C43.102 28.5416 43.4584 28.898 43.898 28.898Z" fill="white"/>
<defs>
<filter id="filter0_d_0_128" x="0" y="0" width="73" height="73" filterUnits="userSpaceOnUse" color-interpolation-filters="sRGB">
<feFlood flood-opacity="0" result="BackgroundImageFix"/>
<feColorMatrix in="SourceAlpha" type="matrix" values="0 0 0 0 0 0 0 0 0 0 0 0 0 0 0 0 0 0 127 0" result="hardAlpha"/>
<feOffset dy="2"/>
<feGaussianBlur stdDeviation="2"/>
<feColorMatrix type="matrix" values="0 0 0 0 0.941176 0 0 0 0 0.847059 0 0 0 0 0.827451 0 0 0 1 0"/>
<feBlend mode="normal" in2="BackgroundImageFix" result="effect1_dropShadow_0_128"/>
<feBlend mode="normal" in="SourceGraphic" in2="effect1_dropShadow_0_128" result="shape"/>
</filter>
<linearGradient id="paint0_linear_0_128" x1="-2.5069" y1="31.3562" x2="35.7694" y2="74.2963" gradientUnits="userSpaceOnUse">
<stop stop-color="#F8E6E2"/>
<stop offset="1" stop-color="#E9C9C2"/>
</linearGradient>
</defs>
</svg>
