<svg width="73" height="73" viewBox="0 0 73 73" fill="none" xmlns="http://www.w3.org/2000/svg">
<g filter="url(#filter0_d_0_138)">
<circle cx="36.5" cy="34.5" r="32.5" fill="url(#paint0_linear_0_138)"/>
</g>
<path fill-rule="evenodd" clip-rule="evenodd" d="M47.9435 24.9217C45.4189 22.3941 42.0613 21.0015 38.4844 21C31.1138 21 25.1151 26.9985 25.1122 34.3711C25.1112 36.7279 25.7269 39.0285 26.8971 41.0564L25 47.9856L32.0888 46.126C34.0421 47.1915 36.2411 47.753 38.479 47.7537H38.4846C45.8544 47.7537 51.8536 41.7547 51.8564 34.3818C51.8579 30.8086 50.4683 27.4491 47.9435 24.9217ZM38.4844 45.4954H38.4798C36.4855 45.4945 34.5296 44.9586 32.8229 43.9461L32.4172 43.7052L28.2106 44.8087L29.3334 40.7073L29.0691 40.2868C27.9565 38.5172 27.369 36.4719 27.37 34.3719C27.3723 28.244 32.3583 23.2585 38.4888 23.2585C41.4575 23.2594 44.2481 24.417 46.3465 26.5178C48.4449 28.6187 49.5998 31.4111 49.5988 34.381C49.5962 40.5094 44.6105 45.4954 38.4844 45.4954ZM42.2977 36.0842C42.604 36.1959 44.2468 37.0039 44.5808 37.1713C44.6464 37.2041 44.7077 37.2337 44.7645 37.2612C44.997 37.3735 45.1541 37.4495 45.2211 37.5614C45.3047 37.7009 45.3047 38.3698 45.0264 39.1504C44.7477 39.9307 43.4131 40.6431 42.771 40.7391C42.1952 40.8251 41.4671 40.861 40.6666 40.6067C40.1812 40.4527 39.5589 40.2473 38.7618 39.9028C35.6296 38.5504 33.5127 35.5146 33.1126 34.9407C33.0846 34.9005 33.0649 34.8724 33.054 34.8578L33.051 34.8538C32.8732 34.6164 31.6897 33.0365 31.6897 31.4014C31.6897 29.8624 32.4455 29.0558 32.7935 28.6845C32.8174 28.659 32.8393 28.6356 32.859 28.6141C33.1653 28.2794 33.5274 28.1959 33.7501 28.1959C33.9729 28.1959 34.1958 28.1979 34.3904 28.2076C34.4144 28.2088 34.4393 28.2086 34.4651 28.2085C34.6599 28.2073 34.9026 28.2059 35.1423 28.7811C35.2338 29.0011 35.3675 29.3266 35.5087 29.6703C35.7969 30.372 36.1163 31.1499 36.1722 31.2621C36.2559 31.4292 36.3117 31.6244 36.2002 31.8474C36.0889 32.0703 35.7267 32.5412 35.365 32.9903C35.3495 33.0095 35.3336 33.0285 35.3176 33.0474C35.1807 33.2101 35.0441 33.3725 35.2184 33.6722C35.4134 34.0066 36.084 35.1007 37.0771 35.9867C38.1452 36.9393 39.0734 37.3419 39.5437 37.5459C39.6354 37.5856 39.7096 37.6178 39.7642 37.6451C40.0984 37.8125 40.293 37.7845 40.488 37.5614C40.6831 37.3386 41.3233 36.5859 41.5461 36.2515C41.7686 35.9172 41.9917 35.9727 42.2977 36.0842Z" fill="white"/>
<defs>
<filter id="filter0_d_0_138" x="0" y="0" width="73" height="73" filterUnits="userSpaceOnUse" color-interpolation-filters="sRGB">
<feFlood flood-opacity="0" result="BackgroundImageFix"/>
<feColorMatrix in="SourceAlpha" type="matrix" values="0 0 0 0 0 0 0 0 0 0 0 0 0 0 0 0 0 0 127 0" result="hardAlpha"/>
<feOffset dy="2"/>
<feGaussianBlur stdDeviation="2"/>
<feColorMatrix type="matrix" values="0 0 0 0 0.941176 0 0 0 0 0.847059 0 0 0 0 0.827451 0 0 0 1 0"/>
<feBlend mode="normal" in2="BackgroundImageFix" result="effect1_dropShadow_0_138"/>
<feBlend mode="normal" in="SourceGraphic" in2="effect1_dropShadow_0_138" result="shape"/>
</filter>
<linearGradient id="paint0_linear_0_138" x1="-2.5069" y1="31.3562" x2="35.7694" y2="74.2963" gradientUnits="userSpaceOnUse">
<stop stop-color="#F8E6E2"/>
<stop offset="1" stop-color="#E9C9C2"/>
</linearGradient>
</defs>
</svg>
