<svg width="40" height="44" viewBox="0 0 40 44" fill="none" xmlns="http://www.w3.org/2000/svg">
<path fill-rule="evenodd" clip-rule="evenodd" d="M28.1636 3.42995C25.62 2.07129 22.8279 1.3695 20.0002 1.3781C9.67902 1.37724 1.26799 10.6114 1.25002 21.9619C1.2486 22.3406 0.969351 22.647 0.625009 22.6476H0.624228C0.458396 22.6476 0.299372 22.5751 0.182257 22.4459C0.0651427 22.3168 -0.000433752 22.1417 2.15942e-06 21.9594C0.00215252 20.4726 0.14035 18.9898 0.412507 17.5334C0.677921 16.1205 1.06967 14.7399 1.58205 13.4117C5.38546 3.57103 15.0659 -1.84363 24.537 0.572136C25.9779 0.939712 27.377 1.48326 28.7081 2.19265C29.0187 2.3579 29.1488 2.76863 28.9988 3.11031C28.8937 3.34726 28.6752 3.49788 28.4355 3.49869C28.3413 3.49873 28.2483 3.47523 28.1636 3.42995ZM30.7358 4.84111C30.5737 4.87817 30.4048 4.84285 30.2663 4.7429C30.0549 4.59052 29.9477 4.31297 29.9949 4.03974C30.042 3.76651 30.2341 3.55144 30.4816 3.49487C30.729 3.4383 30.9831 3.55137 31.1253 3.78133C31.2674 4.01129 31.2696 4.31284 31.1308 4.54528C31.04 4.69763 30.8979 4.80405 30.7358 4.84111ZM13.347 20.6316C13.3228 20.6285 13.2986 20.6269 13.2742 20.6269C12.2583 20.6283 11.2564 20.8884 10.3471 21.3869C10.0413 21.5584 9.91845 21.9691 10.072 22.3067C10.2255 22.6444 10.598 22.7827 10.9062 22.6165C11.6308 22.2192 12.4283 22.0089 13.238 22.0017C14.1919 22.13 15.8708 22.5549 16.4348 23.1751C16.6788 23.4435 17.0746 23.4435 17.3187 23.1751C17.5628 22.9066 17.5628 22.4714 17.3187 22.2029C16.2582 21.0368 13.6418 20.6699 13.347 20.6316ZM30.8201 35.4672C30.6834 35.3641 30.515 35.3249 30.3521 35.3584C30.1891 35.3918 30.0449 35.495 29.9512 35.6454C28.8087 37.4767 26.9561 39.33 24.4442 41.1543C21.7496 43.1162 18.2495 43.1162 15.5549 41.1543C12.4503 38.8993 8.74953 35.4153 8.74953 31.6202V22.6893C8.74953 22.3097 8.4697 22.0019 8.12452 22.0019C7.77934 22.0019 7.49951 22.3097 7.49951 22.6893V31.6202C7.49951 36.0267 11.5055 39.8603 14.8661 42.3009C17.9784 44.5668 22.0209 44.5668 25.1332 42.3009C27.7801 40.379 29.7479 38.4013 30.9817 36.4227C31.1769 36.1098 31.1046 35.682 30.8201 35.4672ZM10.184 27.2983C10.3013 27.4272 10.4602 27.4996 10.626 27.4996C10.7918 27.4996 10.9508 27.4272 11.068 27.2983L11.9186 26.3627C12.1869 26.5751 12.4714 26.7617 12.7689 26.9203L12.0591 27.7009C11.9012 27.8746 11.8395 28.1277 11.8973 28.3649C11.9551 28.6021 12.1236 28.7874 12.3393 28.8509C12.555 28.9145 12.7851 28.8467 12.943 28.673L14.096 27.4048C14.3944 27.4674 14.6974 27.4991 15.0011 27.4996C16.4676 27.4996 17.2355 26.7018 17.318 26.6109L16.4341 25.6387L16.4413 25.631C16.4217 25.6512 15.9502 26.1248 15.0011 26.1248C13.4221 26.1248 12.3269 24.9611 12.318 24.9513C12.2008 24.8224 12.0418 24.75 11.876 24.75C11.7103 24.75 11.5513 24.8224 11.4341 24.9513L10.184 26.3261C10.0668 26.455 10.001 26.6299 10.001 26.8122C10.001 26.9945 10.0668 27.1693 10.184 27.2983ZM16.252 36.4372C16.252 37.766 17.27 39.8741 20.002 39.8741C22.734 39.8741 23.752 37.766 23.752 36.4372C23.752 36.2223 23.6607 36.0198 23.5052 35.8898C22.9601 35.4344 21.6108 34.375 20.8543 34.375C20.5391 34.3853 20.2373 34.5176 20.002 34.7484C19.7667 34.5176 19.4649 34.3853 19.1497 34.375C18.3932 34.375 17.0439 35.4343 16.4988 35.8898C16.3433 36.0198 16.2519 36.2223 16.252 36.4372ZM19.1333 35.7519C19.2081 35.7911 19.3364 35.9346 19.5142 36.1793C19.6328 36.3422 19.8123 36.437 20.0021 36.437C20.1919 36.437 20.3714 36.3422 20.49 36.1793C20.667 35.9361 20.7947 35.7926 20.8696 35.7527C21.1138 35.7985 21.7978 36.2311 22.4578 36.7488C22.3312 37.3252 21.8463 38.4992 20.0021 38.4992C18.158 38.4992 17.673 37.3252 17.5464 36.7488C18.2112 36.2272 18.8996 35.7926 19.1333 35.7519ZM0.624747 24.0215C0.279709 24.0215 0 24.3292 0 24.7089V43.307C0 43.6867 0.279709 43.9944 0.624747 43.9944C0.969786 43.9944 1.24949 43.6867 1.24949 43.307V24.7089C1.24949 24.3292 0.969786 24.0215 0.624747 24.0215ZM39.5095 17.1365C38.8773 14.0599 37.6485 11.1697 35.9071 8.66357C35.0516 7.43113 34.0806 6.30103 33.0102 5.29193C32.7479 5.04552 32.3537 5.07895 32.1289 5.36668C31.9043 5.65497 31.9348 6.0889 32.1969 6.3359C36.357 10.2532 38.7512 15.9757 38.7501 21.9989V43.3079C38.7501 43.6876 39.0299 43.9953 39.3751 43.9953C39.7203 43.9953 40.0001 43.6876 40.0001 43.3079V21.9989C40.0007 20.3631 39.8361 18.7323 39.5095 17.1365ZM22.498 18.5634C22.498 18.9431 22.2183 19.2508 21.8733 19.2508C21.5282 19.2508 21.2485 18.9431 21.2485 18.5634V13.0643C21.2485 12.6847 21.5282 12.3769 21.8733 12.3769C22.2183 12.3769 22.498 12.6847 22.498 13.0643V18.5634ZM36.6966 39.1842C36.7321 39.1841 36.7676 39.1808 36.8027 39.1743C36.966 39.1435 37.1116 39.0427 37.2073 38.8939C37.3031 38.745 37.3412 38.5605 37.3132 38.3808C37.1186 37.1289 36.7732 35.9113 36.2861 34.7599C36.1953 34.5312 35.9991 34.3747 35.7733 34.3508C35.5476 34.327 35.3279 34.4396 35.1992 34.645C35.0705 34.8505 35.0531 35.1165 35.1538 35.3401C35.594 36.3807 35.9062 37.4812 36.082 38.6126C36.1332 38.9422 36.3926 39.1835 36.6966 39.1842ZM22.6336 21.1659C23.1589 23.9783 25.1014 26.2119 27.6326 26.9142C30.5608 27.7205 33.1447 29.6174 34.9449 32.2823C35.0794 32.4796 35.1076 32.741 35.0188 32.9674C34.9299 33.1938 34.7375 33.3505 34.5147 33.378C34.2919 33.4055 34.0727 33.2997 33.9404 33.1006C32.3129 30.6912 29.9768 28.9763 27.3294 28.2475C24.3311 27.4152 22.0303 24.7691 21.4083 21.4376C21.3623 21.196 21.4376 20.9459 21.6056 20.7823C21.7735 20.6186 22.0084 20.5665 22.2209 20.6458C22.4334 20.7251 22.5909 20.9236 22.6336 21.1659ZM13.7505 13.0636C13.7505 13.4433 14.0303 13.751 14.3755 13.751C14.7207 13.751 15.0005 13.4433 15.0005 13.0636C15.0024 11.1664 16.4004 9.62883 18.1255 9.6267C18.4707 9.6267 18.7505 9.31895 18.7505 8.93931C18.7505 8.55968 18.4707 8.25192 18.1255 8.25192C15.7104 8.25495 13.7532 10.4075 13.7505 13.0636ZM20.0009 19.6821C19.996 24.3655 22.8951 28.4492 27.0275 29.58C31.7167 30.8631 35.0065 35.4971 35.001 40.8116V43.3072C35.001 43.6869 34.7212 43.9946 34.376 43.9946C34.0308 43.9946 33.751 43.6869 33.751 43.3072V40.8116C33.7558 36.1282 30.8568 32.0445 26.7244 30.9137C22.0351 29.6306 18.7454 24.9966 18.7508 19.6821V13.0622C18.7508 12.6825 18.471 12.3748 18.1258 12.3748C17.7807 12.3748 17.5008 12.6825 17.5008 13.0622V14.4369C17.5008 15.3774 17.055 16.0631 16.176 16.4751C15.5152 16.7848 14.6735 16.9234 13.699 17.0839L13.6986 17.084C10.3804 17.6303 6.2507 18.3102 6.2507 26.1225V31.5787C6.24923 35.3298 5.35921 39.0158 3.66832 42.2735C3.49682 42.6025 3.11542 42.7166 2.81601 42.5285C2.5166 42.3403 2.41233 41.921 2.583 41.5914C4.16606 38.5415 4.99932 35.0906 5.00068 31.5787V26.1225C5.00068 22.1717 5.97976 19.4389 7.99392 17.768C9.70089 16.3521 11.8147 16.004 13.5134 15.7243C15.4586 15.4041 16.2508 15.198 16.2508 14.4369V13.0622C16.2508 11.9233 17.0903 11 18.1258 11C19.1614 11 20.0009 11.9233 20.0009 13.0622V19.6821ZM37.4985 41.9355C37.4985 42.3151 37.2188 42.6228 36.8738 42.6228C36.5287 42.6228 36.249 42.3151 36.249 41.9355C36.249 41.5558 36.5287 41.2481 36.8738 41.2481C37.2188 41.2481 37.4985 41.5558 37.4985 41.9355ZM20.6252 9.6267C20.9703 9.6267 21.25 9.31895 21.25 8.93931C21.25 8.55968 20.9703 8.25192 20.6252 8.25192C20.2802 8.25192 20.0005 8.55968 20.0005 8.93931C20.0005 9.31895 20.2802 9.6267 20.6252 9.6267Z" fill="black"/>
</svg>
