<svg width="38" height="44" viewBox="0 0 38 44" fill="none" xmlns="http://www.w3.org/2000/svg">
<path fill-rule="evenodd" clip-rule="evenodd" d="M1.58271 11.57C1.81267 11.5696 2.02444 11.4255 2.13624 11.1933C2.24805 10.9611 2.24237 10.6772 2.12141 10.4512C0.465241 7.35189 1.29263 3.28843 3.97103 1.36742C4.1709 1.23352 4.29199 0.984672 4.28714 0.717781C4.28229 0.450886 4.15228 0.20813 3.94773 0.0840339C3.74317 -0.040062 3.49641 -0.0258828 3.30352 0.121048C0.0302484 2.46875 -0.981041 7.43462 1.04273 11.2225C1.15843 11.4387 1.36275 11.5702 1.58271 11.57ZM18.9973 43.9992C24.0424 43.9992 29.1496 42.4881 29.1496 39.6002V38.3715C29.8876 37.8427 30.36 36.9355 30.4187 35.9344V6.60818C30.3613 5.58992 29.8761 4.66862 29.1198 4.14184C28.8108 1.43062 23.8831 0.00976559 18.9973 0.00976559C14.1116 0.00976559 9.18389 1.43062 8.87488 4.14184C8.11854 4.66862 7.63335 5.58992 7.57602 6.60818V35.9344C7.63469 36.9355 8.10707 37.8427 8.84506 38.3715V39.6002C8.84506 42.4881 13.9523 43.9992 18.9973 43.9992ZM27.8796 39.601C27.8796 40.7967 24.419 42.5336 18.9964 42.5336C13.5738 42.5336 10.1131 40.7967 10.1131 39.601V39.2344C12.3422 40.436 15.7248 41.0673 18.9964 41.0673C22.268 41.0673 25.6506 40.4346 27.8796 39.2344V39.601ZM8.84507 35.9322C8.84507 37.4631 12.7074 39.598 18.9973 39.598C25.2873 39.598 29.1496 37.4631 29.1496 35.9322V9.04297C27.1249 10.804 22.977 11.7381 18.9973 11.7381C15.0177 11.7381 10.8698 10.804 8.84507 9.04297V35.9322ZM18.9964 1.47656C24.419 1.47656 27.8796 3.21341 27.8796 4.40919C27.8796 5.60497 24.419 7.34182 18.9964 7.34182C13.5738 7.34182 10.1131 5.60497 10.1131 4.40919C10.1131 3.21341 13.5738 1.47656 18.9964 1.47656ZM18.9973 8.80609C14.7721 8.80609 10.5151 7.74228 9.23974 5.70117C9.01263 5.9334 8.87135 6.25752 8.84507 6.60662C8.84507 8.13745 12.7074 10.2724 18.9973 10.2724C25.2873 10.2724 29.1496 8.13745 29.1496 6.60662C29.1233 6.25752 28.9821 5.9334 28.755 5.70117C27.4796 7.74228 23.2226 8.80609 18.9973 8.80609ZM13.9236 5.14405H15.1926C15.543 5.14405 15.8271 4.8158 15.8271 4.41089C15.8271 4.00598 15.543 3.67773 15.1926 3.67773H13.9236C13.5731 3.67773 13.2891 4.00598 13.2891 4.41089C13.2891 4.8158 13.5731 5.14405 13.9236 5.14405ZM24.0759 5.14405H22.8069C22.4564 5.14405 22.1724 4.8158 22.1724 4.41089C22.1724 4.00598 22.4564 3.67773 22.8069 3.67773H24.0759C24.4263 3.67773 24.7104 4.00598 24.7104 4.41089C24.7104 4.8158 24.4263 5.14405 24.0759 5.14405ZM11.3848 13.2078C11.3848 13.6127 11.1007 13.9409 10.7502 13.9409C10.3998 13.9409 10.1157 13.6127 10.1157 13.2078C10.1157 12.8029 10.3998 12.4746 10.7502 12.4746C11.1007 12.4746 11.3848 12.8029 11.3848 13.2078ZM13.9236 14.6733C14.274 14.6733 14.5581 14.3451 14.5581 13.9402C14.5581 13.5353 14.274 13.207 13.9236 13.207C13.5731 13.207 13.2891 13.5353 13.2891 13.9402C13.2891 14.3451 13.5731 14.6733 13.9236 14.6733ZM12.6548 16.1414C12.6548 16.5463 12.3707 16.8745 12.0203 16.8745C11.6698 16.8745 11.3857 16.5463 11.3857 16.1414C11.3857 15.7364 11.6698 15.4082 12.0203 15.4082C12.3707 15.4082 12.6548 15.7364 12.6548 16.1414ZM15.1926 17.605C15.5431 17.605 15.8271 17.2767 15.8271 16.8718C15.8271 16.4669 15.5431 16.1387 15.1926 16.1387C14.8422 16.1387 14.5581 16.4669 14.5581 16.8718C14.5581 17.2767 14.8422 17.605 15.1926 17.605ZM26.6133 16.1414C26.6133 16.5463 26.3292 16.8745 25.9788 16.8745C25.6283 16.8745 25.3442 16.5463 25.3442 16.1414C25.3442 15.7364 25.6283 15.4082 25.9788 15.4082C26.3292 15.4082 26.6133 15.7364 26.6133 16.1414ZM22.8069 17.605C23.1573 17.605 23.4414 17.2767 23.4414 16.8718C23.4414 16.4669 23.1573 16.1387 22.8069 16.1387C22.4564 16.1387 22.1724 16.4669 22.1724 16.8718C22.1724 17.2767 22.4564 17.605 22.8069 17.605ZM19.6343 16.8718C19.6343 17.2767 19.3502 17.605 18.9998 17.605C18.6493 17.605 18.3652 17.2767 18.3652 16.8718C18.3652 16.4669 18.6493 16.1387 18.9998 16.1387C19.3502 16.1387 19.6343 16.4669 19.6343 16.8718ZM17.0964 15.4077C17.4469 15.4077 17.7309 15.0795 17.7309 14.6746C17.7309 14.2697 17.4469 13.9414 17.0964 13.9414C16.746 13.9414 16.4619 14.2697 16.4619 14.6746C16.4619 15.0795 16.746 15.4077 17.0964 15.4077ZM27.8823 13.2078C27.8823 13.6127 27.5982 13.9409 27.2478 13.9409C26.8974 13.9409 26.6133 13.6127 26.6133 13.2078C26.6133 12.8029 26.8974 12.4746 27.2478 12.4746C27.5982 12.4746 27.8823 12.8029 27.8823 13.2078ZM24.0754 14.6733C24.4259 14.6733 24.71 14.3451 24.71 13.9402C24.71 13.5353 24.4259 13.207 24.0754 13.207C23.725 13.207 23.4409 13.5353 23.4409 13.9402C23.4409 14.3451 23.725 14.6733 24.0754 14.6733ZM21.5376 14.6746C21.5376 15.0795 21.2535 15.4077 20.9031 15.4077C20.5526 15.4077 20.2686 15.0795 20.2686 14.6746C20.2686 14.2697 20.5526 13.9414 20.9031 13.9414C21.2535 13.9414 21.5376 14.2697 21.5376 14.6746ZM10.7502 19.0735C11.1007 19.0735 11.3848 18.7452 11.3848 18.3403C11.3848 17.9354 11.1007 17.6072 10.7502 17.6072C10.3998 17.6072 10.1157 17.9354 10.1157 18.3403C10.1157 18.7452 10.3998 19.0735 10.7502 19.0735ZM14.5581 19.073C14.5581 19.4779 14.274 19.8062 13.9236 19.8062C13.5731 19.8062 13.2891 19.4779 13.2891 19.073C13.2891 18.6681 13.5731 18.3398 13.9236 18.3398C14.274 18.3398 14.5581 18.6681 14.5581 19.073ZM17.0964 20.5386C17.4469 20.5386 17.7309 20.2103 17.7309 19.8054C17.7309 19.4005 17.4469 19.0723 17.0964 19.0723C16.746 19.0723 16.4619 19.4005 16.4619 19.8054C16.4619 20.2103 16.746 20.5386 17.0964 20.5386ZM27.8823 18.3403C27.8823 18.7452 27.5982 19.0735 27.2478 19.0735C26.8974 19.0735 26.6133 18.7452 26.6133 18.3403C26.6133 17.9354 26.8974 17.6072 27.2478 17.6072C27.5982 17.6072 27.8823 17.9354 27.8823 18.3403ZM24.0754 19.8062C24.4259 19.8062 24.71 19.4779 24.71 19.073C24.71 18.6681 24.4259 18.3398 24.0754 18.3398C23.725 18.3398 23.4409 18.6681 23.4409 19.073C23.4409 19.4779 23.725 19.8062 24.0754 19.8062ZM21.5376 19.8054C21.5376 20.2103 21.2535 20.5386 20.9031 20.5386C20.5526 20.5386 20.2686 20.2103 20.2686 19.8054C20.2686 19.4005 20.5526 19.0723 20.9031 19.0723C21.2535 19.0723 21.5376 19.4005 21.5376 19.8054ZM22.4547 22.8618C22.6494 22.7116 22.8999 22.6975 23.1063 22.8251C23.3127 22.9528 23.4414 23.2013 23.4414 23.4718V29.337C23.4414 30.5518 22.5891 31.5365 21.5378 31.5365C20.4865 31.5365 19.6342 30.5518 19.6342 29.337C19.6342 28.1223 20.4865 27.1376 21.5378 27.1376C21.7544 27.14 21.9691 27.1856 22.1723 27.2725V24.65C20.9428 25.0975 19.6444 25.2338 18.3652 25.0495V30.8033C18.3652 32.0181 17.513 33.0028 16.4617 33.0028C15.4104 33.0028 14.5581 32.0181 14.5581 30.8033C14.5581 29.5886 15.4104 28.6039 16.4617 28.6039C16.6783 28.6063 16.893 28.6519 17.0962 28.7388V24.2049C17.0961 23.9854 17.1812 23.7774 17.3281 23.6381C17.4749 23.4988 17.6681 23.4429 17.8544 23.4857C17.8862 23.493 20.796 24.1397 22.4547 22.8618ZM15.8271 30.8016C15.8271 31.2065 16.1112 31.5348 16.4617 31.5348C16.8121 31.5348 17.0962 31.2065 17.0962 30.8016C17.0962 30.3967 16.8121 30.0685 16.4617 30.0685C16.1112 30.0685 15.8271 30.3967 15.8271 30.8016ZM21.5364 30.0699C21.1859 30.0699 20.9019 29.7417 20.9019 29.3368C20.9019 28.9319 21.1859 28.6036 21.5364 28.6036C21.8868 28.6036 22.1709 28.9319 22.1709 29.3368C22.1709 29.7417 21.8868 30.0699 21.5364 30.0699ZM5.11873 2.5234C5.2826 2.56795 5.42443 2.68592 5.513 2.85134C5.69717 3.19554 5.60516 3.64707 5.30742 3.86016C3.81916 4.92697 3.35905 7.18439 4.27886 8.90648C4.40295 9.12928 4.41336 9.4121 4.30607 9.64626C4.19879 9.88042 3.99052 10.0295 3.76129 10.0362C3.53206 10.0428 3.31755 9.90611 3.20018 9.67849C1.91222 7.26789 2.55598 4.10756 4.63927 2.6138C4.78238 2.51136 4.95486 2.47885 5.11873 2.5234ZM34.6954 0.121048C34.5025 -0.0258828 34.2558 -0.040062 34.0512 0.0840339C33.8467 0.20813 33.7167 0.450886 33.7118 0.717781C33.707 0.984672 33.828 1.23352 34.0279 1.36742C36.7063 3.28843 37.5337 7.35189 35.8775 10.4512C35.7053 10.7944 35.8006 11.2337 36.0926 11.4424C36.3845 11.6512 36.7672 11.5537 36.9562 11.2225C38.98 7.43462 37.9687 2.46875 34.6954 0.121048ZM34.4034 10.0054C34.2396 10.0499 34.0671 10.0174 33.924 9.91497C33.6263 9.70137 33.5348 9.24939 33.7197 8.90541C34.6395 7.18332 34.1794 4.92591 32.6911 3.8591C32.4941 3.72349 32.3758 3.47563 32.3815 3.21076C32.3873 2.9459 32.5163 2.70525 32.719 2.58129C32.9217 2.45733 33.1664 2.46935 33.3592 2.61273C35.4423 4.10674 36.0858 7.26701 34.7977 9.67743C34.7091 9.84285 34.5673 9.96082 34.4034 10.0054ZM3.30352 43.89C3.40343 43.9621 3.51887 44.0002 3.63664 44C3.92018 44.0001 4.16934 43.7828 4.24702 43.4677C4.3247 43.1526 4.21204 42.8162 3.97103 42.6437C1.29263 40.7226 0.465241 36.6592 2.12141 33.5598C2.29363 33.2166 2.19834 32.7774 1.90638 32.5687C1.61442 32.3599 1.23171 32.4574 1.04273 32.7886C-0.981041 36.5765 0.0302484 41.5423 3.30352 43.89ZM3.59561 34.0039C3.75948 33.9593 3.93195 33.9918 4.07507 34.0943C4.37274 34.3079 4.46422 34.7598 4.27938 35.1038C3.35957 36.8259 3.81968 39.0833 5.30793 40.1501C5.50492 40.2857 5.62327 40.5336 5.61748 40.7985C5.6117 41.0633 5.48269 41.304 5.28004 41.4279C5.07738 41.5519 4.83261 41.5399 4.63979 41.3965C2.55672 39.9025 1.91326 36.7422 3.20133 34.3318C3.2899 34.1664 3.43174 34.0484 3.59561 34.0039ZM34.3637 44C34.4815 44.0002 34.5969 43.9621 34.6968 43.89C37.9701 41.5423 38.9814 36.5765 36.9576 32.7886C36.7686 32.4574 36.3859 32.3599 36.094 32.5687C35.802 32.7774 35.7067 33.2166 35.8789 33.5598C37.5351 36.6592 36.7077 40.7226 34.0293 42.6437C33.7883 42.8162 33.6757 43.1526 33.7533 43.4677C33.831 43.7828 34.0802 44.0001 34.3637 44ZM32.8809 41.4876C32.717 41.4431 32.5752 41.3251 32.4866 41.1597C32.3027 40.8151 32.3953 40.3634 32.6935 40.1508C34.1813 39.0835 34.6408 36.8262 33.7208 35.1045C33.5967 34.8817 33.5863 34.5989 33.6936 34.3647C33.8009 34.1306 34.0091 33.9815 34.2384 33.9748C34.4676 33.9682 34.6821 34.1049 34.7995 34.3325C36.0874 36.7431 35.4437 39.9034 33.3604 41.3972C33.2173 41.4996 33.0448 41.5322 32.8809 41.4876Z" fill="black"/>
</svg>
