<svg width="37" height="42" viewBox="0 0 37 42" fill="none" xmlns="http://www.w3.org/2000/svg">
<path fill-rule="evenodd" clip-rule="evenodd" d="M36.5145 0.544647L36.517 0.54723C37.1106 1.22104 37.1635 2.29023 36.6398 3.03434C32.7798 8.51796 28.7513 14.0374 24.5957 19.5403L35.3086 31.6998C35.8203 32.2809 36.1022 33.0534 36.1022 33.8751C36.1022 34.6968 35.8203 35.4693 35.3085 36.0503L34.1593 37.3547L34.1588 37.3554L34.1582 37.356L30.2263 41.8194C30.1204 41.9395 29.9816 41.9995 29.843 41.9995C29.7043 41.9995 29.5655 41.9395 29.4597 41.8194C29.248 41.5791 29.248 41.1896 29.4597 40.9493L33.0089 36.9204L32.2334 36.04L28.6841 40.0689C28.5782 40.189 28.4395 40.2491 28.3008 40.2491C28.1621 40.2491 28.0234 40.189 27.9175 40.0689C27.7058 39.8286 27.7058 39.4392 27.9175 39.1988L31.4668 35.1699L30.6912 34.2896L27.142 38.3185C27.0361 38.4385 26.8973 38.4986 26.7587 38.4986C26.62 38.4986 26.4812 38.4385 26.3754 38.3185C26.1637 38.0782 26.1637 37.6887 26.3754 37.4483L29.9246 33.4195L29.1491 32.5391L25.5998 36.568C25.4939 36.6881 25.3552 36.7481 25.2165 36.7481C25.0778 36.7481 24.9391 36.6881 24.8332 36.568C24.6215 36.3277 24.6215 35.9382 24.8332 35.6979L28.3825 31.669L27.6068 30.7886L24.0576 34.8175C23.9517 34.9376 23.813 34.9977 23.6743 34.9977C23.5356 34.9977 23.3969 34.9376 23.291 34.8175C23.0793 34.5773 23.0793 34.1878 23.291 33.9474L26.8403 29.9184L26.0647 29.0381L22.5154 33.067C22.4096 33.1871 22.2708 33.2471 22.1321 33.2471C21.9935 33.2471 21.8547 33.1871 21.7488 33.067C21.5372 32.8267 21.5372 32.4372 21.7488 32.1969L25.2981 28.168L24.5225 27.2876L20.9733 31.3165C20.8674 31.4366 20.7287 31.4966 20.59 31.4966C20.4513 31.4966 20.3126 31.4366 20.2067 31.3165C19.995 31.0762 19.995 30.6868 20.2067 30.4464L23.7559 26.4175L22.9803 25.5371L19.4311 29.566C19.3252 29.6861 19.1864 29.7461 19.0478 29.7461C18.9091 29.7461 18.7703 29.6861 18.6645 29.566C18.4528 29.3257 18.4528 28.9362 18.6645 28.6959L22.2137 24.667L21.3971 23.74C19.4891 26.2237 17.5576 28.7013 15.605 31.1678L14.4984 32.5959C15.3952 33.6361 15.8895 35.0101 15.888 36.4662C15.891 39.5299 13.7003 42 11.0123 42H11.0065C7.71702 42 5.35024 38.3579 6.36717 34.7669C5.30024 35.1552 4.11913 35.121 3.04092 34.6254C1.2251 33.7882 -0.00233057 31.7743 5.41931e-05 29.4943C-0.0031255 26.4686 2.16297 23.9638 4.87278 23.9638H4.88001C6.30429 23.9638 7.65205 24.6659 8.5785 25.8898C8.86214 26.1204 8.88006 26.5872 8.62619 26.8463L8.62113 26.8513C8.61824 26.8546 8.61607 26.857 8.61318 26.8595C8.38482 27.0948 8.02458 27.0651 7.82838 26.7906C7.105 25.7775 6.02896 25.1951 4.8764 25.1943C2.76031 25.196 1.08541 27.1403 1.08397 29.4943C1.08635 33.3718 5.23707 35.2401 7.59402 32.5023L9.22867 30.6467C9.91006 29.874 10.2851 28.8388 10.2851 27.7321C10.2851 26.7856 9.99678 25.8701 9.47502 25.1532C9.4743 25.1532 9.4743 25.1523 9.4743 25.1523C9.31524 24.9718 9.25418 24.5091 9.57475 24.2458C9.80484 24.0103 10.0363 23.769 10.2648 23.5308L10.2648 23.5307L10.2649 23.5307L10.2649 23.5307L10.2649 23.5307L10.2651 23.5305L10.2651 23.5304L10.2656 23.5299C10.5565 23.2267 10.8425 22.9285 11.1147 22.6537C11.1147 22.6528 11.1147 22.6528 11.1155 22.6528C12.7524 20.9958 14.408 19.3409 16.0722 17.6958L15.2693 16.7843L11.72 20.8133C11.6142 20.9334 11.4754 20.9934 11.3367 20.9934C11.1981 20.9934 11.0593 20.9334 10.9535 20.8133C10.7418 20.573 10.7418 20.1835 10.9535 19.9432L14.5028 15.9143L13.7271 15.0338L10.1778 19.0627C10.072 19.1828 9.93326 19.2428 9.79458 19.2428C9.6559 19.2428 9.51715 19.1828 9.41136 19.0627C9.19969 18.8224 9.19969 18.4329 9.41136 18.1926L12.9606 14.1637L12.185 13.2832L8.63573 17.3121C8.52993 17.4322 8.39118 17.4923 8.2525 17.4923C8.11383 17.4923 7.97508 17.4322 7.86928 17.3121C7.65761 17.0719 7.65761 16.6824 7.86928 16.442L11.4185 12.4131L10.6429 11.5327L7.09365 15.5616C6.98786 15.6817 6.84911 15.7417 6.71043 15.7417C6.57175 15.7417 6.433 15.6817 6.3272 15.5616C6.11554 15.3213 6.11554 14.9318 6.3272 14.6915L9.87646 10.6626L9.10083 9.78215L5.55158 13.811C5.44578 13.9311 5.30703 13.9912 5.16835 13.9912C5.02967 13.9912 4.89092 13.9311 4.78513 13.811C4.57346 13.5708 4.57346 13.1813 4.78513 12.9409L8.33438 8.91204L7.55875 8.0316L4.00943 12.0606C3.90363 12.1807 3.76488 12.2407 3.6262 12.2407C3.48752 12.2407 3.34877 12.1807 3.24298 12.0606C3.03131 11.8203 3.03131 11.4308 3.24298 11.1905L6.7923 7.16158L6.01668 6.28114L2.46735 10.31C2.36155 10.4301 2.2228 10.4902 2.08412 10.4902C1.94545 10.4902 1.8067 10.4301 1.7009 10.31C1.48923 10.0697 1.48923 9.68026 1.7009 9.43991L5.25016 5.41103L4.47453 4.53059L0.925199 8.55947C0.713605 8.79966 0.370416 8.79966 0.15875 8.55947C-0.0529165 8.3192 -0.0529165 7.92972 0.15875 7.68937L5.24098 1.92027C6.29757 0.721138 8.01677 0.720974 9.07344 1.92027L19.7744 14.0671C20.7116 13.1568 21.6497 12.2514 22.587 11.353C26.4416 7.65836 30.3909 3.97598 34.3257 0.408432C34.6147 0.145195 34.979 0 35.3511 0H35.3532C35.7837 0 36.2054 0.197285 36.5115 0.541569L36.5145 0.544647ZM6.00738 2.78968L5.24093 3.65971L16.892 16.8854C17.5767 16.2112 18.2627 15.5399 18.9493 14.8703L8.30687 2.78968C7.67288 2.07011 6.64129 2.07011 6.00738 2.78968ZM34.542 32.5702C34.8491 32.9187 35.0183 33.3822 35.0183 33.8752C35.0183 34.3682 34.8491 34.8317 34.542 35.1803L33.7755 36.0503L26.6514 27.9635L22.1107 22.8093C22.7054 22.0322 23.2981 21.2546 23.888 20.4766L34.542 32.5702ZM14.978 29.8662L14.978 29.8662C15.0243 29.9025 15.0656 29.9347 15.0995 29.9642C27.0685 14.8225 35.7971 2.2725 35.8414 2.18398L35.4966 2.57524L35.4848 2.58867L35.4808 2.5932C32.6806 5.77068 14.5562 26.3376 14.4961 26.4152C14.2991 26.6672 13.9553 26.6938 13.7308 26.4669C13.5075 26.2421 13.4866 25.8525 13.6853 25.5982C13.7767 25.4813 32.3482 4.40833 34.8078 1.61752L35.0749 1.31445C34.863 1.45218 23.589 11.6763 11.8376 23.5702L11.8355 23.5735C11.5327 23.8798 11.2597 24.1647 10.9759 24.4609L10.9749 24.4619L10.973 24.4639C10.8559 24.5861 10.737 24.7102 10.6134 24.8385C11.1077 25.6948 11.3693 26.6964 11.3685 27.7333C11.3685 29.1523 10.88 30.5127 9.99412 31.5183L8.38621 33.3435C8.37648 33.3591 8.3531 33.3871 8.31939 33.4275C8.06431 33.7331 7.21768 34.7474 7.21551 36.4672C7.21551 38.8598 8.92423 40.7675 11.0094 40.7706C13.119 40.769 14.8017 38.8383 14.8033 36.4672C14.8024 35.1754 14.3044 33.9623 13.3948 33.1195C13.2799 33.0136 13.2069 32.8561 13.1961 32.6888C13.1845 32.5215 13.2351 32.3534 13.3341 32.2287C13.5947 31.902 13.8309 31.5947 14.0863 31.2624C14.1796 31.1409 14.2755 31.0161 14.3762 30.8858C14.3364 30.853 14.2981 30.8236 14.2598 30.7948C13.527 30.2526 13.0472 29.3658 12.9439 28.3626H12.9431C12.906 27.9979 13.1555 27.6751 13.483 27.6751C13.7569 27.6751 13.9874 27.9082 14.0199 28.2182C14.1213 29.1957 14.6656 29.6217 14.978 29.8662ZM2.16847 29.4981C2.16833 26.7811 5.08533 25.3828 6.79492 27.3234C7.85282 28.5239 7.85267 30.4725 6.79492 31.6729C6.26666 32.2724 5.57262 32.5722 4.8788 32.5722C4.18476 32.5722 3.49101 32.2726 2.96267 31.6729C2.45052 31.0916 2.16847 30.3193 2.16847 29.4981ZM4.8794 27.6523C3.42527 27.6523 2.71432 29.6488 3.72965 30.8013C4.36364 31.5208 5.39516 31.5206 6.02915 30.8013C7.03986 29.6541 6.33772 27.6524 4.8794 27.6523ZM11.0091 33.3926C9.89468 33.3926 8.93738 34.1189 8.51072 35.2882C8.08197 36.4632 8.30512 37.7487 9.09304 38.6429C9.61638 39.2368 10.2906 39.5482 10.9868 39.5482C11.3385 39.5482 11.6959 39.4686 12.0421 39.3059C13.0764 38.8194 13.719 37.732 13.719 36.468C13.7189 34.7723 12.5033 33.3926 11.0091 33.3926ZM11.6273 38.1673C11.1424 38.3952 10.4235 38.4109 9.85959 37.7709C9.29541 37.1306 9.31037 36.3109 9.51235 35.7571C9.71274 35.2079 10.2112 34.6211 11.0093 34.6211C11.9058 34.6211 12.6352 35.4488 12.6352 36.4661C12.6352 37.3709 12.1146 37.9382 11.6273 38.1673Z" fill="black"/>
</svg>
