<svg width="34" height="50" viewBox="0 0 34 50" fill="none" xmlns="http://www.w3.org/2000/svg">
<path fill-rule="evenodd" clip-rule="evenodd" d="M29.0299 20.0128C26.8272 17.4244 23.8904 15.5936 20.6146 14.836V12.5632C20.6146 12.0582 20.4452 11.5531 20.1063 11.2375C19.7674 10.9218 19.3721 10.6693 18.9203 10.6693H18.0166L17.9601 0.946976C17.9601 0.378792 17.5648 0 17.113 0C16.6047 0 16.2658 0.441921 16.2658 0.946976L16.3223 10.6693H15.4186C14.9668 10.6693 14.515 10.8587 14.2326 11.2375C13.9502 11.6163 13.7243 12.0582 13.7243 12.5632V14.7728C10.2791 15.5936 7.28572 17.4244 4.9701 20.0128C1.86379 23.485 0 28.2199 0 33.523C0 34.0912 0.395349 34.47 0.847176 34.47H9.88372C10.1096 36.3008 10.7874 37.9422 11.9169 39.2049C13.2159 40.6569 15.0233 41.5407 17 41.5407C18.9767 41.5407 20.7841 40.6569 22.0831 39.2049C23.2126 37.9422 23.8904 36.3008 24.1163 34.47H33.1528C33.6611 34.47 34 34.0281 34 33.523C34 28.2831 32.0797 23.485 29.0299 20.0128ZM15.3626 12.627H18.8642V14.5209H18.7513H18.4689C18.0171 14.4578 17.5088 14.4578 17.0569 14.4578C16.7557 14.4157 16.4545 14.4297 16.1533 14.4437H16.1533C16.0027 14.4508 15.8521 14.4578 15.7014 14.4578C15.5885 14.4578 15.4755 14.4578 15.3626 14.5209V12.627ZM17.0567 39.5824C18.5251 39.5824 19.8806 38.9511 20.8972 37.8147C21.7444 36.9309 22.2527 35.7314 22.4786 34.4688H17.0567H11.6912C11.8607 35.7945 12.4255 36.9309 13.2162 37.8147C14.1763 38.888 15.5318 39.5824 17.0567 39.5824ZM23.3821 32.5127H17.0565H10.7309H1.75083C1.97675 28.1566 3.61462 24.2424 6.21263 21.4015C8.58472 18.7499 11.691 16.9822 15.1927 16.5403C15.2492 16.5403 15.3198 16.5245 15.3904 16.5088C15.461 16.493 15.5316 16.4772 15.588 16.4772C16.0399 16.4141 16.5482 16.4141 17 16.4141C17.5083 16.4141 17.9601 16.4141 18.4684 16.4772C18.5249 16.4772 18.5955 16.493 18.6661 16.5088C18.7367 16.5245 18.8073 16.5403 18.8638 16.5403C22.3654 16.9822 25.4718 18.7499 27.8439 21.4015C30.4419 24.3055 32.0797 28.1566 32.3056 32.5127H23.3821ZM16.2095 43.8122C16.2095 43.3072 16.5483 42.8652 17.0566 42.8652C17.5649 42.8652 17.9038 43.244 17.9038 43.8122V49.0522C17.9038 49.5572 17.5649 49.9991 17.0566 49.9991C16.6048 49.9991 16.2095 49.6203 16.2095 49.0522V43.8122ZM24.7929 46.4632L22.4208 41.9177C22.1949 41.4758 21.6301 41.2864 21.2347 41.5389C20.8394 41.7914 20.6699 42.4227 20.8959 42.8647L23.268 47.4101C23.4939 47.8521 24.0587 48.0415 24.454 47.7889C24.8493 47.5364 25.0188 46.9051 24.7929 46.4632ZM25.4718 37.8157L29.5382 40.4673C29.9901 40.7198 30.103 41.3511 29.8771 41.793C29.6512 42.2981 29.0864 42.4243 28.6911 42.1718L24.6246 39.5203C24.1728 39.2677 24.0598 38.6364 24.2858 38.1945C24.5117 37.6895 25.0765 37.5632 25.4718 37.8157ZM9.82678 38.1931C9.60086 37.7511 9.03608 37.5618 8.64073 37.8143L4.57428 40.4658C4.17894 40.7183 4.0095 41.3497 4.23541 41.7916C4.46133 42.2335 5.02611 42.4229 5.42146 42.1704L9.48791 39.5188C9.88326 39.2032 10.0527 38.635 9.82678 38.1931ZM11.6912 41.9177C11.9171 41.4758 12.4819 41.2864 12.8772 41.5389C13.3291 41.7914 13.442 42.4227 13.2161 42.8647L10.844 47.4101C10.6181 47.9152 10.0533 48.0415 9.65796 47.7889C9.20613 47.5364 9.09318 46.9051 9.31909 46.4632L11.6912 41.9177Z" fill="black"/>
</svg>
