<svg width="40" height="44" viewBox="0 0 40 44" fill="none" xmlns="http://www.w3.org/2000/svg">
<path fill-rule="evenodd" clip-rule="evenodd" d="M17.1543 4.7562L16.7478 4.19475C16.1511 3.37076 16.1502 2.21891 16.7457 1.39371C17.014 1.02194 16.9574 0.481376 16.6194 0.186347C16.2814 -0.108857 15.7901 -0.0465512 15.5218 0.325225C14.4716 1.7807 14.4732 3.81223 15.5256 5.26565L15.9321 5.82709C16.7119 6.90392 16.713 8.40916 15.9349 9.48762L15.5183 10.065C15.2501 10.4367 15.3066 10.9773 15.6446 11.2723C15.7883 11.3977 15.9596 11.4586 16.1297 11.4586C16.3599 11.4586 16.5879 11.3473 16.7422 11.1334L17.1588 10.5561C18.3916 8.84745 18.3898 6.46245 17.1543 4.7562ZM32.8125 17.7449H39.2188C39.6502 17.7449 40 18.1296 40 18.6043V24.749C40 29.3139 36.6238 33.0278 32.474 33.0278H30.2688C29.293 34.7195 28.0677 36.2206 26.6514 37.4681H33.9063C34.3377 37.4681 34.6875 37.8528 34.6875 38.3275C34.6875 41.4551 32.3745 43.9995 29.5313 43.9995H5.15625C2.31305 43.9995 0 41.4551 0 38.3275C0 37.8528 0.349844 37.4681 0.78125 37.4681H6.16109C4.62227 36.1126 3.3082 34.4585 2.29547 32.5852C0.79375 29.8078 0 26.6225 0 23.374V15.9259C0 15.4512 0.349844 15.0665 0.78125 15.0665H6.79688C7.22828 15.0665 7.57812 15.4512 7.57812 15.9259C7.57812 16.4005 7.22828 16.7853 6.79688 16.7853H1.5625V23.374C1.5625 29.1617 4.37164 34.5411 8.90766 37.468H23.9048C28.4409 34.5411 31.25 29.1617 31.25 23.3739V16.7852H15.1562C14.7248 16.7852 14.375 16.4004 14.375 15.9258C14.375 15.4512 14.7248 15.0664 15.1562 15.0664H32.0312C32.4627 15.0664 32.8125 15.4512 32.8125 15.9258V17.7449ZM29.5316 42.2794C31.245 42.2794 32.6822 40.9535 33.0398 39.1855H24.1145H8.69875H1.64844C2.00617 40.9535 3.44328 42.2794 5.15664 42.2794H29.5316ZM32.8113 23.375V22.9023H35.3113V24.75C35.3113 26.4718 34.038 27.8725 32.4728 27.8725H32.2954C32.6364 26.411 32.8113 24.9 32.8113 23.375ZM32.4747 31.3083C35.763 31.3083 38.4382 28.3655 38.4382 24.7483V19.4629H32.8132V21.1817H36.0945C36.5259 21.1817 36.8757 21.5665 36.8757 22.0411V24.7483C36.8757 27.4177 34.9015 29.5895 32.4747 29.5895H31.812C31.6173 30.1741 31.3945 30.7479 31.145 31.3083H32.4747ZM21.078 6.12645L21.4845 6.68781C22.72 8.39423 22.7218 10.7792 21.4889 12.4878L21.0725 13.0651C20.9182 13.2788 20.6901 13.3903 20.46 13.3903C20.2898 13.3903 20.1185 13.3294 19.9748 13.204C19.6368 12.909 19.5803 12.3684 19.8485 11.9967L20.265 11.4194C21.0432 10.341 21.042 8.8357 20.2623 7.75879L19.8558 7.19735C18.8034 5.74384 18.8018 3.71231 19.852 2.25684C20.1203 1.88506 20.6116 1.82275 20.9496 2.11796C21.2876 2.41299 21.3442 2.95355 21.0759 3.32532C20.4804 4.15052 20.4813 5.30237 21.078 6.12645ZM12.8229 6.6878L12.4164 6.12645C11.8197 5.30246 11.8188 4.15052 12.4142 3.32532C12.6825 2.95354 12.6259 2.41298 12.288 2.11787C11.9499 1.82275 11.4586 1.88514 11.1903 2.25674C10.1402 3.71222 10.1418 5.74384 11.1942 7.19726L11.6007 7.7587C12.3804 8.83561 12.3815 10.3409 11.6035 11.4192L11.1869 11.9965C10.9187 12.3683 10.9751 12.9088 11.3131 13.2039C11.4568 13.3293 11.628 13.3903 11.7983 13.3903C12.0284 13.3903 12.2565 13.2789 12.4107 13.0651L12.8273 12.4878C14.0601 10.7792 14.0583 8.39423 12.8229 6.6878ZM11.1899 15.0664C11.3954 15.0664 11.597 15.1584 11.7423 15.3182C11.8883 15.4781 11.9712 15.6998 11.9712 15.9258C11.9712 16.1527 11.8883 16.3736 11.7423 16.5343C11.597 16.6941 11.3954 16.7852 11.1899 16.7852C10.9845 16.7852 10.7829 16.6941 10.6376 16.5343C10.4923 16.3736 10.4087 16.1518 10.4087 15.9258C10.4087 15.6998 10.4924 15.4789 10.6376 15.3182C10.7829 15.1584 10.9845 15.0664 11.1899 15.0664ZM28.2822 22.5156C27.8507 22.5156 27.5009 22.9004 27.5009 23.375C27.5009 26.565 26.3247 29.7 24.2737 31.9761C23.97 32.3132 23.9722 32.8574 24.2786 33.1915C24.431 33.3576 24.6298 33.4406 24.8286 33.4406C25.0297 33.4405 25.2308 33.3556 25.3836 33.186C27.7222 30.5906 29.0634 27.0147 29.0634 23.375C29.0634 22.9004 28.7136 22.5156 28.2822 22.5156ZM21.8963 33.9839C22.2721 33.7507 22.7486 33.8967 22.9606 34.3102C23.1726 34.7236 23.0398 35.2477 22.664 35.481L22.6462 35.492C22.5249 35.5672 22.3931 35.6031 22.2631 35.6031C21.9902 35.6031 21.7255 35.4457 21.5819 35.1657C21.3699 34.7524 21.5027 34.2282 21.8785 33.995L21.8963 33.9839Z" fill="black"/>
</svg>
