<svg width="33" height="42" viewBox="0 0 33 42" fill="none" xmlns="http://www.w3.org/2000/svg">
<path fill-rule="evenodd" clip-rule="evenodd" d="M30.644 15.0324C29.5528 13.8617 28.1668 13.0538 26.654 12.7068V10.8402C26.654 4.85334 22.1054 0 16.4944 0C10.8834 0 6.33483 4.85334 6.33483 10.8402V12.7102C3.45717 13.3831 1.15283 15.6776 0.324985 18.6943C-0.502857 21.711 0.27769 24.9693 2.36069 27.1921L16.0539 41.801C16.1727 41.9284 16.3343 42 16.5027 42C16.6712 42 16.8327 41.9284 16.9516 41.801L30.6432 27.1921C33.7853 23.8323 33.7857 18.3926 30.644 15.0324ZM7.60547 10.8407C7.60547 5.60214 11.5855 1.35547 16.4951 1.35547C21.4047 1.35547 25.3847 5.60214 25.3847 10.8407V12.5268C25.2395 12.5192 25.0934 12.5141 24.9474 12.5141C24.6693 12.5144 24.3914 12.5297 24.1148 12.5599V10.8407C24.1148 6.35051 20.7033 2.7105 16.4951 2.7105C12.2869 2.7105 8.87541 6.35051 8.87541 10.8407V12.5582C8.60634 12.5294 8.3341 12.5141 8.05947 12.5141C7.90708 12.5141 7.75627 12.5192 7.60547 12.5285V10.8407ZM22.845 12.8097V10.8416C22.845 7.09974 20.0021 4.06641 16.4952 4.06641C12.9884 4.06641 10.1455 7.09974 10.1455 10.8416V12.8055C11.5132 13.194 12.7597 13.9629 13.7577 15.0337L16.5032 17.9631L19.2494 15.0337C20.2433 13.9672 21.4837 13.2 22.845 12.8097ZM29.7452 26.2329L16.5021 40.3625L3.25811 26.2329C0.620106 23.4017 0.626358 18.8268 3.27209 16.0038C5.91782 13.1808 10.2055 13.1742 12.8589 15.9889L16.0536 19.3977C16.3015 19.662 16.7034 19.662 16.9513 19.3977L20.146 15.9889C21.8592 14.1496 24.3632 13.4278 26.7114 14.0965C29.0596 14.7652 30.8935 16.7224 31.5199 19.228C32.1462 21.7336 31.4693 24.4053 29.7452 26.2329ZM16.4934 21.6836C15.1269 21.6836 13.9136 22.6166 13.4815 23.9999C13.0493 25.3832 13.4953 26.9064 14.5885 27.7812V30.4913C14.5885 30.8655 14.8728 31.1688 15.2235 31.1688H17.7634C18.1141 31.1688 18.3983 30.8655 18.3983 30.4913V27.7812C19.4916 26.9064 19.9375 25.3832 19.5054 23.9999C19.0732 22.6166 17.86 21.6836 16.4934 21.6836ZM17.4464 26.8326C17.2504 26.9536 17.1296 27.1769 17.1294 27.4186V29.8136H15.8595V27.4186C15.8595 27.1768 15.7387 26.9532 15.5425 26.8321C14.7956 26.3723 14.4313 25.4346 14.6544 24.5458C14.8774 23.6571 15.6322 23.0391 16.4944 23.0391C17.3567 23.0391 18.1115 23.6571 18.3345 24.5458C18.5576 25.4346 18.1933 26.3723 17.4464 26.8321V26.8326Z" fill="black"/>
</svg>
